<?xml version="1.0" encoding="utf-8"?>
<!-- Generator: Adobe Illustrator 24.1.0, SVG Export Plug-In . SVG Version: 6.00 Build 0)  -->
<svg version="1.1" id="Layer_1" xmlns="http://www.w3.org/2000/svg" xmlns:xlink="http://www.w3.org/1999/xlink" x="0px" y="0px"
	 viewBox="0 0 78.5 66.5" enable-background="new 0 0 78.5 66.5" xml:space="preserve">
<g>
	<path fill="none" stroke="#DB0F15" d="M13.6,3.6h9v40.8c0,3.7-0.7,6.8-2,9.3c-1.4,2.5-3.2,4.6-5.6,6.2c-2.4,1.6-5.1,2.8-8.2,3.7
		l-3.4-8.1c6.8-2,10.2-5.5,10.2-10.7V3.6"/>
	<path fill="none" stroke="#DB0F15" d="M49.6,3.4H54l20.2,43.7H63.7L60.4,39H43.2l-3.3,8.1H29.4L49.6,3.4 M51.8,18.1l-5.4,13.3h10.9
		L51.8,18.1"/>
</g>
<text transform="matrix(1 0 0 1 15.2682 34.4914)" fill="#A5A4A4" font-family="'Sen-Regular'" font-size="8.0084px">Laddar resultat</text>
<circle fill="#FFFFFF" cx="8.9" cy="32.2" r="3.7"/>
</svg>
