<?xml version="1.0" standalone="no"?>
<!DOCTYPE svg PUBLIC "-//W3C//DTD SVG 20010904//EN"
 "http://www.w3.org/TR/2001/REC-SVG-20010904/DTD/svg10.dtd">
<svg version="1.0" xmlns="http://www.w3.org/2000/svg"
 width="1424.000000pt" height="1424.000000pt" viewBox="0 0 1424.000000 1424.000000"
 preserveAspectRatio="xMidYMid meet">
<metadata>
Created by potrace 1.11, written by Peter Selinger 2001-2013
</metadata>
<g transform="translate(0.000000,1424.000000) scale(0.100000,-0.100000)"
fill="#000000" stroke="none">
<path d="M7015 14233 c-38 -8 -120 -51 -151 -79 -50 -47 -76 -92 -95 -166
l-18 -69 24 -47 c13 -26 26 -62 29 -80 2 -19 23 -79 46 -135 23 -56 45 -111
50 -122 4 -11 12 -31 18 -45 5 -14 20 -50 32 -80 11 -30 25 -65 31 -77 5 -13
13 -33 18 -45 5 -13 14 -36 21 -53 6 -16 12 -32 12 -35 0 -3 3 -9 8 -15 4 -5
11 -25 15 -43 9 -44 49 -66 82 -45 13 9 23 23 23 32 0 17 63 177 74 188 3 4 6
12 6 19 0 8 11 38 25 68 14 30 25 57 25 61 0 3 7 21 15 41 8 19 14 35 13 37
-1 1 5 13 12 27 8 14 15 27 15 30 1 3 7 19 14 35 15 37 20 54 21 60 0 3 11 30
25 61 21 48 24 67 21 147 -3 108 -25 165 -88 233 -43 46 -78 68 -144 88 -39
13 -138 17 -179 9z"/>
<path d="M4898 13085 c-2 -2 -17 -5 -35 -8 -55 -9 -138 -52 -180 -95 -62 -63
-86 -121 -89 -224 -2 -53 0 -88 6 -88 6 0 10 -11 10 -23 0 -25 71 -143 99
-164 17 -13 31 -20 106 -53 28 -13 75 -34 105 -48 30 -14 58 -25 63 -24 4 1 7
-2 7 -8 0 -5 3 -9 8 -8 7 3 244 -101 252 -111 3 -3 12 -7 20 -9 8 -2 31 -11
50 -20 19 -9 37 -17 40 -17 3 -1 19 -8 35 -16 17 -9 42 -14 57 -13 32 3 70 22
65 32 -3 4 -1 16 3 27 7 20 -25 114 -43 126 -5 3 -8 9 -8 13 1 6 -11 36 -46
114 -9 20 -17 39 -18 42 -1 3 -18 40 -38 83 -20 42 -37 80 -37 82 0 3 -15 37
-34 75 -19 37 -32 71 -28 74 3 3 -1 6 -8 6 -7 0 -11 3 -7 6 9 9 -60 134 -85
155 -13 10 -29 24 -36 30 -31 26 -124 59 -175 63 -31 2 -58 2 -59 1z"/>
<path d="M9280 13082 c-38 -5 -112 -33 -142 -54 -14 -10 -30 -18 -35 -18 -4 0
-21 -22 -36 -50 -15 -27 -32 -52 -37 -55 -7 -5 -45 -76 -55 -105 -6 -18 -24
-58 -67 -148 -26 -57 -48 -106 -48 -110 0 -3 -13 -33 -29 -66 -28 -59 -72
-156 -76 -166 -1 -3 -7 -18 -13 -33 -16 -38 -15 -78 3 -101 8 -11 15 -17 15
-13 0 4 9 3 20 -3 17 -9 35 -4 98 26 42 20 93 42 113 49 20 7 45 18 55 24 11
5 35 17 54 25 19 8 60 25 90 39 88 40 134 60 145 62 6 2 50 22 100 45 90 43
193 129 180 150 -3 6 -2 10 4 10 19 0 40 104 37 175 -11 200 -183 345 -376
317z"/>
<path d="M7086 12493 c-1 -1 -33 -5 -72 -7 -38 -3 -69 -5 -69 -6 0 -1 -9 -3
-20 -4 -51 -7 -111 -19 -120 -24 -5 -4 -19 -8 -30 -9 -24 -4 -98 -30 -145 -51
-19 -9 -38 -15 -42 -14 -5 1 -8 -2 -8 -8 0 -5 -3 -9 -7 -9 -18 3 -31 -2 -51
-21 -12 -11 -23 -20 -24 -20 -5 2 -43 -14 -48 -19 -12 -14 -70 -51 -79 -51 -6
0 -14 -6 -18 -13 -4 -7 -21 -23 -38 -36 -68 -51 -155 -143 -225 -236 -16 -22
-33 -45 -37 -50 -34 -45 -111 -204 -141 -290 -50 -141 -65 -240 -66 -410 0
-129 6 -195 23 -267 5 -21 7 -38 4 -38 -3 0 -1 -6 5 -12 6 -7 10 -15 10 -18 0
-4 18 -70 27 -100 13 -42 97 -215 106 -218 5 -2 9 -8 9 -14 0 -13 83 -130 116
-163 14 -14 23 -25 20 -25 -8 0 126 -126 169 -159 22 -16 53 -40 69 -53 46
-35 246 -134 311 -154 157 -46 289 -68 420 -67 68 0 187 10 207 18 7 3 27 7
43 9 54 6 224 65 307 107 92 46 143 78 208 129 25 19 51 40 58 45 86 68 226
239 283 345 13 25 27 47 30 50 7 6 31 67 31 77 0 4 3 13 8 18 14 18 59 162 75
240 26 133 26 359 -1 498 -25 134 -122 363 -190 453 -13 17 -24 34 -24 37 0 4
-8 15 -17 25 -10 10 -28 31 -40 47 -40 51 -117 128 -183 180 -59 48 -194 139
-212 144 -4 1 -36 14 -70 30 -98 45 -318 110 -318 94 0 -3 -7 0 -15 7 -11 9
-15 9 -15 1 0 -7 -5 -9 -11 -5 -15 9 -196 24 -203 17z"/>
<path d="M4745 11402 c-2 -3 -16 -6 -29 -7 -50 -6 -126 -37 -188 -77 -44 -29
-340 -318 -998 -977 -870 -870 -1000 -1004 -1000 -1028 0 -5 -5 -14 -11 -20
-14 -14 -46 -105 -57 -158 -16 -86 -4 -286 19 -309 5 -6 9 -18 9 -28 0 -10 5
-18 10 -18 6 0 10 -9 10 -20 0 -11 5 -20 10 -20 6 0 10 -6 10 -12 0 -21 83
-114 145 -163 53 -41 124 -75 217 -103 13 -4 710 -8 1551 -9 l1527 -3 0 -1194
0 -1193 -95 -47 c-52 -25 -98 -46 -101 -45 -4 0 -10 -3 -13 -8 -3 -5 -40 -27
-81 -49 -41 -21 -76 -42 -78 -46 -2 -5 -8 -8 -13 -8 -12 0 -142 -81 -151 -95
-4 -5 -8 -6 -8 -2 0 8 -68 -37 -112 -73 -10 -8 -22 -15 -27 -15 -4 0 -15 -7
-24 -15 -31 -29 -46 -40 -53 -40 -3 0 -18 -10 -33 -22 -15 -13 -40 -32 -55
-43 -16 -11 -33 -25 -40 -30 -6 -6 -38 -32 -71 -59 -210 -169 -441 -407 -600
-621 -33 -44 -63 -81 -67 -83 -5 -2 -8 -10 -8 -17 0 -7 -3 -15 -8 -17 -9 -4
-117 -171 -163 -253 -19 -33 -42 -73 -51 -90 -10 -16 -32 -59 -50 -95 -18 -36
-36 -66 -40 -68 -5 -2 -8 -7 -8 -12 0 -5 -16 -43 -35 -84 -19 -42 -35 -78 -35
-81 0 -3 -9 -24 -20 -48 -30 -66 -101 -262 -116 -319 -1 -5 -3 -10 -4 -13 -1
-3 -4 -9 -5 -15 -1 -5 -3 -11 -5 -12 -1 -2 -3 -10 -5 -18 -4 -14 -19 -71 -30
-112 -3 -10 -7 -27 -10 -38 -3 -11 -7 -29 -10 -40 -17 -68 -25 -104 -30 -135
-2 -11 -10 -56 -18 -100 -8 -44 -15 -87 -15 -95 0 -8 -3 -26 -6 -39 -3 -13 -8
-49 -11 -80 -4 -31 -8 -67 -10 -80 -13 -77 -20 -248 -20 -486 0 -271 7 -410
30 -595 4 -30 8 -68 10 -85 5 -44 14 -109 31 -210 23 -142 24 -147 34 -195 6
-25 12 -59 15 -77 2 -18 6 -37 9 -42 3 -5 8 -28 11 -51 3 -23 10 -51 16 -61 5
-11 8 -19 5 -19 -2 0 9 -51 25 -112 17 -62 32 -124 34 -138 2 -14 4 -26 6 -27
1 -2 2 -6 4 -10 1 -5 5 -15 8 -23 4 -8 9 -26 11 -40 11 -54 31 -115 39 -121 5
-3 8 -8 6 -10 -7 -10 26 -111 56 -174 99 -209 290 -362 510 -408 67 -14 231
-16 283 -3 12 3 30 8 40 10 224 53 425 240 498 466 36 111 41 300 12 390 -8
25 -21 65 -28 90 -7 25 -19 65 -27 90 -20 61 -74 270 -78 297 -2 12 -6 26 -9
31 -3 5 -8 27 -12 48 -3 22 -12 68 -21 104 -8 36 -17 83 -19 104 -3 22 -7 43
-10 47 -2 4 -7 27 -10 50 -3 24 -7 53 -9 64 -5 38 -17 139 -20 174 -2 20 -4
36 -5 36 -4 0 -13 175 -14 292 0 73 -5 133 -9 133 -5 0 -5 5 -1 12 4 6 9 54
11 107 5 122 7 143 16 159 5 7 3 12 -3 12 -6 0 -9 4 -5 9 3 5 8 31 11 58 9 70
12 87 14 93 1 3 2 8 1 13 -1 4 4 28 10 55 14 60 18 81 24 114 10 56 78 265
112 348 36 88 95 210 131 270 12 19 28 49 37 66 20 40 147 217 204 286 56 67
242 252 299 298 24 19 56 45 70 58 15 12 35 25 45 28 9 3 17 9 17 14 0 5 13
16 29 25 16 8 35 20 43 28 19 19 234 147 246 147 6 0 12 3 14 8 5 11 212 112
231 112 9 0 17 4 17 8 0 4 26 16 58 27 31 10 69 24 83 31 15 7 37 15 50 18 13
2 36 9 50 14 101 40 383 42 494 5 11 -4 22 -7 25 -8 8 -1 100 -35 180 -67 92
-37 349 -164 371 -184 8 -8 19 -14 22 -14 14 0 280 -179 302 -204 6 -6 26 -23
45 -37 19 -14 56 -46 83 -71 26 -25 47 -44 47 -42 0 3 111 -111 171 -176 17
-19 57 -69 88 -110 31 -41 59 -76 64 -78 4 -2 7 -7 7 -12 0 -4 18 -35 40 -68
22 -33 40 -65 40 -71 0 -6 3 -11 8 -11 9 0 90 -166 147 -305 35 -85 76 -219
100 -325 9 -41 19 -84 22 -95 2 -11 5 -27 7 -35 1 -8 5 -35 9 -60 18 -107 22
-147 32 -285 7 -92 12 -375 6 -380 -2 -2 -5 -41 -7 -87 -2 -46 -6 -105 -9
-133 -4 -27 -8 -66 -10 -85 -11 -96 -22 -170 -45 -295 -6 -33 -14 -73 -17 -90
-2 -16 -16 -77 -29 -135 -14 -58 -31 -133 -39 -167 -7 -34 -19 -72 -26 -85 -7
-13 -12 -24 -11 -26 2 -1 0 -12 -3 -25 -4 -13 -8 -32 -10 -43 -2 -10 -4 -20
-5 -21 -2 -2 -4 -7 -5 -13 -1 -5 -3 -11 -5 -12 -1 -2 -3 -10 -5 -18 -2 -8 -13
-49 -24 -90 -16 -60 -19 -100 -17 -195 2 -66 6 -129 9 -140 4 -11 11 -39 17
-62 12 -52 83 -190 117 -229 14 -16 35 -40 47 -54 22 -26 106 -96 141 -117 31
-19 120 -60 150 -69 104 -30 249 -38 350 -20 78 15 215 64 215 77 0 5 5 9 11
9 34 0 162 113 226 201 52 70 129 256 150 359 7 35 9 43 16 60 9 20 105 398
112 441 3 19 9 43 12 54 3 11 7 29 8 40 1 11 5 34 8 50 8 34 9 38 30 155 27
149 27 146 42 280 3 30 8 67 10 82 3 15 7 53 10 85 2 32 7 92 12 133 9 98 10
621 0 730 -17 190 -15 176 -32 295 -7 53 -11 78 -18 110 -3 11 -8 40 -12 65
-4 25 -9 54 -12 65 -2 11 -6 29 -8 40 -3 11 -16 63 -30 115 -14 52 -27 104
-29 115 -15 68 -18 80 -25 90 -5 5 -12 26 -16 45 -4 19 -19 64 -32 100 -70
182 -88 227 -101 248 -8 12 -12 22 -9 22 7 0 -110 237 -133 270 -10 14 -19 30
-20 35 -3 16 -54 100 -62 103 -4 2 -8 9 -8 15 0 15 -129 211 -141 215 -5 2 -9
8 -9 13 0 7 -112 162 -130 179 -3 3 -25 30 -50 60 -69 84 -106 124 -217 234
-102 101 -110 109 -148 145 -87 83 -336 281 -354 281 -5 0 -11 4 -13 9 -4 10
-175 127 -246 168 -26 15 -49 30 -52 33 -3 3 -16 11 -30 18 -14 7 -43 23 -65
36 -22 13 -104 56 -182 96 -137 70 -142 74 -143 104 0 50 -1 184 -1 216 1 8 1
44 0 80 0 36 0 72 0 80 1 8 1 44 0 80 0 36 0 72 0 80 1 8 1 44 0 80 0 36 0 72
0 80 1 8 1 44 0 80 0 36 0 72 0 80 1 8 1 44 0 80 0 84 0 79 2 159 0 38 -1 73
-4 78 -3 4 -2 27 3 51 4 23 4 45 -1 48 -4 2 -5 15 -1 27 8 23 6 96 -3 105 -2
3 0 11 6 19 8 9 8 13 0 13 -7 0 -8 8 -2 23 5 12 5 31 1 42 -4 11 -4 29 -1 40
8 22 5 94 -4 103 -2 3 0 11 6 19 8 9 8 13 0 13 -7 0 -8 8 -2 23 5 12 5 31 1
42 -4 11 -4 29 -1 40 8 22 5 94 -4 103 -2 3 0 11 6 19 8 9 8 13 0 13 -7 0 -8
8 -2 23 5 12 5 31 1 42 -4 11 -4 29 -1 40 8 22 5 94 -4 103 -2 3 0 11 6 19 8
9 8 13 0 13 -7 0 -8 8 -2 23 5 12 5 31 1 42 -4 11 -5 24 -2 29 3 5 4 26 4 48
-1 21 1 39 6 39 4 1 687 3 1517 4 831 2 1517 5 1525 7 8 2 31 8 50 12 84 19
235 110 278 168 7 9 18 23 25 30 21 23 59 79 62 91 1 7 6 21 10 32 45 110 48
124 51 227 1 59 -2 122 -8 140 -30 90 -55 145 -86 192 -42 61 -1955 1976
-1974 1976 -8 0 -23 8 -34 19 -20 18 -109 55 -161 67 -103 22 -263 8 -359 -32
-168 -70 -307 -242 -339 -419 -14 -77 -8 -226 12 -275 3 -8 7 -21 9 -28 1 -7
12 -33 23 -58 12 -24 21 -47 20 -50 0 -4 4 -10 10 -13 6 -4 22 -22 36 -40 20
-27 402 -421 784 -808 40 -41 71 -76 69 -79 -3 -2 -1216 -3 -2697 -2 l-2692 3
359 359 c198 197 365 362 372 366 6 4 11 9 9 11 -1 2 25 31 60 64 100 97 167
217 188 335 7 42 7 175 0 210 -13 60 -37 124 -70 182 -38 69 -131 168 -181
194 -98 52 -124 64 -146 68 -14 2 -27 5 -30 6 -3 2 -9 2 -14 1 -4 -1 -13 2
-20 7 -11 9 -192 13 -201 4z"/>
</g>
</svg>
